<?xml version="1.0" standalone="no"?>
<!DOCTYPE svg PUBLIC "-//W3C//DTD SVG 20010904//EN"
 "http://www.w3.org/TR/2001/REC-SVG-20010904/DTD/svg10.dtd">
<svg version="1.0" xmlns="http://www.w3.org/2000/svg"
 width="300.000000pt" height="211.000000pt" viewBox="0 0 300.000000 211.000000"
 preserveAspectRatio="xMidYMid meet">
<metadata>
Ignacio Trujillo
</metadata>
<g transform="translate(0.000000,211.000000) scale(0.100000,-0.100000)"
fill="#FFFFFF" stroke="none">
<path d="M1896 1619 c-82 -65 -72 -175 21 -220 49 -23 87 -20 128 13 100 78
51 228 -75 228 -33 0 -55 -6 -74 -21z"/>
<path d="M770 1435 c0 -190 17 -166 -130 -185 -143 -20 -292 -89 -399 -185
-56 -51 -114 -141 -149 -233 -39 -100 -85 -336 -59 -301 2 2 21 28 42 58 48
66 109 115 211 168 111 58 200 80 432 107 l52 7 0 -186 c0 -102 2 -185 4 -185
2 0 118 85 257 190 140 104 257 189 262 190 4 0 7 -65 7 -144 0 -118 3 -147
16 -160 19 -20 44 -20 70 -2 17 13 19 30 22 181 3 122 6 165 15 162 8 -2 13
-51 15 -160 l3 -157 164 0 165 0 0 161 c0 142 2 160 16 157 14 -3 16 -23 15
-154 -2 -148 -1 -153 23 -180 24 -28 26 -28 53 -14 l28 16 3 192 c3 217 -1
234 -65 274 -35 21 -51 23 -213 28 l-175 5 -235 180 c-318 245 -438 335 -445
335 -3 0 -5 -74 -5 -165z"/>
<path d="M1544 1361 c-71 -43 -80 -137 -20 -197 85 -85 216 -28 216 95 0 37
-6 49 -39 82 -33 33 -45 39 -82 39 -25 0 -57 -8 -75 -19z"/>
<path d="M2229 1357 c-40 -27 -66 -89 -55 -132 4 -15 22 -43 40 -61 42 -42 78
-51 130 -33 53 18 86 67 86 127 0 38 -5 50 -39 83 -33 34 -45 39 -83 39 -30 0
-56 -8 -79 -23z"/>
<path d="M1774 1334 c-9 -4 -9 -16 -1 -45 13 -55 -4 -109 -47 -147 l-34 -29
60 -6 c127 -11 198 -81 198 -194 0 -29 5 -53 10 -53 6 0 10 27 10 61 0 33 5
70 11 82 35 68 112 107 211 107 l49 0 -36 31 c-43 38 -62 98 -46 148 6 19 8
37 5 40 -7 7 -375 12 -390 5z"/>
<path d="M2085 1065 c-94 -34 -109 -82 -103 -328 3 -133 5 -150 22 -163 23
-16 45 -18 66 -4 12 7 16 43 20 177 4 140 7 168 20 168 13 0 15 -25 18 -157
l3 -158 164 0 165 0 0 160 c0 136 2 160 15 160 13 0 15 -23 15 -149 0 -82 4
-161 9 -174 13 -33 46 -43 76 -23 l25 16 0 193 c0 218 -6 238 -76 273 -33 16
-65 19 -219 21 -137 2 -190 -1 -220 -12z"/>
</g>
</svg>
