<?xml version="1.0" standalone="no"?>
<!DOCTYPE svg PUBLIC "-//W3C//DTD SVG 20010904//EN"
 "http://www.w3.org/TR/2001/REC-SVG-20010904/DTD/svg10.dtd">
<svg version="1.0" xmlns="http://www.w3.org/2000/svg"
 width="150.000000pt" height="105.000000pt" viewBox="0 0 150.000000 105.000000"
 preserveAspectRatio="xMidYMid meet">
<metadata>
Ignacio Trujillo
</metadata>
<g transform="translate(0.000000,105.000000) scale(0.100000,-0.100000)"
fill="#FFFFFF" stroke="none">
<path d="M386 711 l-7 -79 -62 -11 c-136 -24 -238 -107 -275 -224 -26 -81 -34
-127 -22 -127 6 0 10 4 10 8 0 20 70 77 125 103 54 26 155 49 212 49 21 0 22
-5 25 -88 l3 -89 177 131 c98 72 176 134 175 138 -2 6 -344 268 -351 268 -2 0
-7 -36 -10 -79z"/>
<path d="M944 766 c-33 -15 -44 -33 -44 -71 0 -37 10 -55 41 -71 36 -18 73
-10 99 23 26 34 25 66 -2 97 -30 32 -56 38 -94 22z"/>
<path d="M833 575 c-48 -21 -54 -41 -51 -177 3 -121 3 -123 27 -126 13 -2 28
2 32 10 5 7 9 57 9 111 0 58 4 97 10 97 6 0 10 -40 10 -100 l0 -101 101 3 101
3 2 90 c2 128 20 124 26 -5 5 -98 6 -105 27 -108 36 -5 46 29 41 148 -4 117
-10 134 -65 157 -44 18 -227 17 -270 -2z"/>
</g>
</svg>
