<?xml version="1.0" standalone="no"?>
<!DOCTYPE svg PUBLIC "-//W3C//DTD SVG 20010904//EN"
 "http://www.w3.org/TR/2001/REC-SVG-20010904/DTD/svg10.dtd">
<svg version="1.0" xmlns="http://www.w3.org/2000/svg"
 width="100.000000pt" height="100.000000pt" viewBox="0 0 100.000000 100.000000"
 preserveAspectRatio="xMidYMid meet">
<metadata>
Ignacio Trujillo
</metadata>
<g transform="translate(0.000000,100.000000) scale(0.100000,-0.100000)"
fill="#FF6702" stroke="none">
<path d="M458 948 c87 -140 113 -230 119 -403 6 -178 -14 -274 -87 -413 l-49
-93 42 3 c39 3 45 8 79 58 156 231 151 618 -11 838 -28 37 -36 42 -72 42 l-41
0 20 -32z"/>
<path d="M345 695 c-14 -13 -25 -36 -25 -50 0 -14 11 -37 25 -50 13 -14 36
-25 50 -25 14 0 37 11 50 25 14 13 25 36 25 50 0 33 -42 75 -75 75 -14 0 -37
-11 -50 -25z"/>
<path d="M368 323 c-23 -4 -28 -11 -33 -41 -7 -38 -48 -193 -60 -224 -5 -13
-2 -18 11 -18 46 0 66 14 90 62 26 51 84 202 84 219 0 9 -40 10 -92 2z"/>
</g>
</svg>
