<?xml version="1.0" standalone="no"?>
<!DOCTYPE svg PUBLIC "-//W3C//DTD SVG 20010904//EN"
 "http://www.w3.org/TR/2001/REC-SVG-20010904/DTD/svg10.dtd">
<svg version="1.0" xmlns="http://www.w3.org/2000/svg"
 width="384.000000pt" height="384.000000pt" viewBox="0 0 384.000000 384.000000"
 preserveAspectRatio="xMidYMid meet">
<metadata>
Ignacio Trujillo
</metadata>
<g transform="translate(0.000000,384.000000) scale(0.100000,-0.100000)" stroke="none">
<path fill="rgb(0, 95, 159)" d="M1853 3192 c-27 -26 -54 -57 -57 -69 -4 -13 -12 -23 -18 -23 -5 0 -7
7 -4 16 5 13 3 14 -7 6 -14 -12 -43 0 -34 15 3 5 2 14 -2 21 -5 9 -14 6 -32
-10 -14 -13 -62 -45 -108 -73 -123 -74 -228 -181 -281 -289 -40 -79 -43 -93
-48 -184 -4 -88 5 -210 24 -324 5 -31 4 -38 -9 -38 -26 0 -40 -38 -34 -89 11
-86 29 -150 51 -183 12 -19 27 -59 34 -90 44 -221 214 -458 390 -546 72 -35
81 -37 172 -37 91 0 100 2 171 37 92 46 172 112 244 203 68 85 139 225 163
320 9 39 27 86 39 105 25 41 53 153 53 215 0 32 -5 48 -19 57 -18 13 -18 15 0
88 88 346 -41 605 -351 705 -30 10 -62 20 -70 23 -8 3 -17 6 -20 6 -3 1 -23
13 -45 28 -42 27 -95 93 -95 119 0 29 -13 29 -49 2 l-36 -28 18 29 c29 43 16
39 -40 -12z"/>
<path fill="rgb(0, 60, 150)" d="M1431 1382 c-29 -55 -218 -153 -447 -232 -224 -77 -296 -132 -368
-282 -53 -110 -96 -250 -130 -427 -26 -132 -56 -351 -56 -408 l0 -33 1470 0
1470 0 -6 58 c-24 244 -71 465 -145 678 -57 166 -75 199 -138 255 -66 59 -279
168 -441 224 -140 49 -234 100 -274 147 l-33 38 -64 -106 c-75 -126 -185 -248
-259 -288 -77 -42 -160 -47 -234 -13 -103 47 -203 160 -292 331 -38 73 -43 77
-53 58z"/>
</g>
</svg>
